<svg width="24" height="24" viewBox="0 0 24 24" fill="none" xmlns="http://www.w3.org/2000/svg">
<g id="row 1 icon">
<rect id="Rectangle 59" width="24" height="24" rx="12" fill="#61CDA6"/>
<path id="Vector" d="M18.7319 7.31078C18.639 7.21231 18.5284 7.13414 18.4065 7.0808C18.2846 7.02746 18.1539 7 18.0219 7C17.8899 7 17.7592 7.02746 17.6373 7.0808C17.5155 7.13414 17.4049 7.21231 17.3119 7.31078L9.86192 15.1487L6.73192 11.8496C6.6354 11.7516 6.52146 11.6746 6.3966 11.6229C6.27175 11.5712 6.13843 11.5459 6.00424 11.5483C5.87006 11.5507 5.73765 11.5809 5.61458 11.6371C5.4915 11.6933 5.38016 11.7745 5.28692 11.8759C5.19368 11.9773 5.12037 12.097 5.07117 12.2282C5.02196 12.3593 4.99783 12.4994 5.00015 12.6404C5.00247 12.7814 5.0312 12.9205 5.0847 13.0498C5.13819 13.1791 5.2154 13.2961 5.31192 13.3941L9.15192 17.4286C9.24489 17.527 9.35549 17.6052 9.47735 17.6585C9.59921 17.7119 9.72991 17.7393 9.86192 17.7393C9.99393 17.7393 10.1246 17.7119 10.2465 17.6585C10.3684 17.6052 10.479 17.527 10.5719 17.4286L18.7319 8.85524C18.8334 8.75686 18.9144 8.63745 18.9698 8.50454C19.0252 8.37163 19.0539 8.22811 19.0539 8.08301C19.0539 7.93791 19.0252 7.79439 18.9698 7.66148C18.9144 7.52858 18.8334 7.40917 18.7319 7.31078Z" fill="white"/>
</g>
</svg>
