<svg width="20" height="20" viewBox="0 0 20 20" fill="none" xmlns="http://www.w3.org/2000/svg">
<path d="M13.665 6.33503C13.5731 6.24244 13.4639 6.16895 13.3435 6.1188C13.2231 6.06865 13.094 6.04283 12.9636 6.04283C12.8332 6.04283 12.7041 6.06865 12.5837 6.1188C12.4633 6.16895 12.354 6.24244 12.2622 6.33503L10 8.60711L7.7378 6.33503C7.55178 6.14902 7.29949 6.04451 7.03642 6.04451C6.77335 6.04451 6.52105 6.14902 6.33503 6.33503C6.14902 6.52105 6.04451 6.77335 6.04451 7.03642C6.04451 7.29949 6.14902 7.55178 6.33503 7.7378L8.60711 10L6.33503 12.2622C6.24244 12.354 6.16895 12.4633 6.1188 12.5837C6.06865 12.7041 6.04283 12.8332 6.04283 12.9636C6.04283 13.094 6.06865 13.2231 6.1188 13.3435C6.16895 13.4639 6.24244 13.5731 6.33503 13.665C6.42687 13.7576 6.53613 13.831 6.65651 13.8812C6.77689 13.9313 6.90601 13.9572 7.03642 13.9572C7.16683 13.9572 7.29594 13.9313 7.41632 13.8812C7.5367 13.831 7.64596 13.7576 7.7378 13.665L10 11.3929L12.2622 13.665C12.354 13.7576 12.4633 13.831 12.5837 13.8812C12.7041 13.9313 12.8332 13.9572 12.9636 13.9572C13.094 13.9572 13.2231 13.9313 13.3435 13.8812C13.4639 13.831 13.5731 13.7576 13.665 13.665C13.7576 13.5731 13.831 13.4639 13.8812 13.3435C13.9313 13.2231 13.9572 13.094 13.9572 12.9636C13.9572 12.8332 13.9313 12.7041 13.8812 12.5837C13.831 12.4633 13.7576 12.354 13.665 12.2622L11.3929 10L13.665 7.7378C13.7576 7.64596 13.831 7.5367 13.8812 7.41632C13.9313 7.29594 13.9572 7.16683 13.9572 7.03642C13.9572 6.90601 13.9313 6.77689 13.8812 6.65651C13.831 6.53613 13.7576 6.42687 13.665 6.33503ZM16.9842 3.01582C16.0729 2.07231 14.9829 1.31974 13.7776 0.802013C12.5724 0.284285 11.2761 0.0117711 9.96445 0.000372984C8.65277 -0.0110251 7.35196 0.238921 6.13792 0.735626C4.92387 1.23233 3.82091 1.96585 2.89338 2.89338C1.96585 3.82091 1.23233 4.92387 0.735626 6.13792C0.238921 7.35196 -0.0110251 8.65277 0.000372984 9.96445C0.0117711 11.2761 0.284285 12.5724 0.802013 13.7776C1.31974 14.9829 2.07231 16.0729 3.01582 16.9842C3.92709 17.9277 5.01714 18.6803 6.22237 19.198C7.4276 19.7157 8.72388 19.9882 10.0356 19.9996C11.3472 20.011 12.648 19.7611 13.8621 19.2644C15.0761 18.7677 16.1791 18.0342 17.1066 17.1066C18.0342 16.1791 18.7677 15.0761 19.2644 13.8621C19.7611 12.648 20.011 11.3472 19.9996 10.0356C19.9882 8.72388 19.7157 7.4276 19.198 6.22237C18.6803 5.01714 17.9277 3.92709 16.9842 3.01582ZM15.5913 15.5913C14.2992 16.8848 12.5986 17.6903 10.7792 17.8706C8.95983 18.0509 7.13422 17.5947 5.61342 16.5799C4.09263 15.5651 2.97074 14.0544 2.43889 12.3052C1.90704 10.5559 1.99813 8.6764 2.69666 6.98681C3.39518 5.29722 4.65792 3.90208 6.26973 3.0391C7.88154 2.17612 9.7427 1.89868 11.5361 2.25406C13.3296 2.60943 14.9443 3.57564 16.1052 4.98805C17.2661 6.40046 17.9014 8.1717 17.9029 10C17.9064 11.0385 17.7039 12.0674 17.3071 13.0272C16.9104 13.9869 16.3272 14.8584 15.5913 15.5913Z" fill="#FAFAFF"/>
</svg>
