<svg width="20" height="20" viewBox="0 0 20 20" fill="none" xmlns="http://www.w3.org/2000/svg">
<g clip-path="url(#clip0_276_596)">
<rect width="20" height="20" rx="3" fill="white"/>
<path d="M20 0H0V20H20V0Z" fill="#005BFF"/>
<path d="M4.2499 10.8349C4.63837 10.7939 4.95218 10.5323 5.00175 10.2083C5.01905 10.0977 5.00564 9.98526 4.96255 9.87967C4.91946 9.77408 4.84784 9.67815 4.75322 9.59928C4.65859 9.52041 4.54349 9.46072 4.4168 9.4248C4.29011 9.38889 4.15522 9.37771 4.02252 9.39213C3.63374 9.43345 3.31993 9.695 3.27067 10.0188C3.25337 10.1294 3.26678 10.2418 3.30987 10.3474C3.35296 10.453 3.42458 10.5489 3.51921 10.6278C3.61383 10.7067 3.72893 10.7664 3.85562 10.8023C3.98231 10.8382 4.11721 10.8494 4.2499 10.8349ZM4.30288 8.75697C4.67688 8.78979 5.02603 8.92862 5.29195 9.15026C5.55787 9.3719 5.72445 9.6629 5.76382 9.97463C5.86636 10.837 5.00392 11.5558 3.96893 11.4704C3.59498 11.4375 3.2459 11.2986 2.98004 11.077C2.71418 10.8554 2.54765 10.5644 2.50829 10.2527C2.40576 9.39033 3.2682 8.67151 4.30288 8.75697ZM6.64175 8.81093H9.03669C9.12777 8.81093 9.17919 8.89769 9.12436 8.95811L7.46732 10.7802H8.76563C9.0023 10.7802 9.18849 10.9596 9.13954 11.1641C9.1036 11.3142 8.93477 11.4164 8.75138 11.4164H6.15043C6.06028 11.4164 6.00917 11.3304 6.06338 11.2708L7.72166 9.44713H6.656C6.47261 9.44713 6.30377 9.34463 6.26784 9.19487C6.21858 8.99038 6.40507 8.81093 6.64175 8.81093ZM17.0353 8.81816C17.2825 8.77479 17.5 8.93074 17.5 9.12903V11.3245C17.5 11.4012 17.3937 11.4438 17.3219 11.3963L15.2559 10.0301V11.0988C15.2559 11.2971 15.0385 11.4531 14.7912 11.4097C14.614 11.3787 14.4926 11.2411 14.4926 11.0903V8.90259C14.4926 8.82591 14.5989 8.78331 14.6707 8.83082L16.737 10.1969V9.13755C16.737 8.98677 16.8587 8.84941 17.0356 8.81816H17.0353ZM11.6559 8.75C12.9208 8.75 13.9462 9.36038 13.9462 10.1133C13.9462 10.8662 12.9208 11.4766 11.6559 11.4766C10.3911 11.4766 9.36568 10.8662 9.36568 10.1133C9.36568 9.36038 10.3911 8.75 11.6559 8.75ZM11.6559 9.3862C10.782 9.3862 10.129 9.77013 10.129 10.1133C10.129 10.4564 10.782 10.8404 11.6559 10.8404C12.5298 10.8404 13.1828 10.4567 13.1828 10.1133C13.1828 9.76988 12.5298 9.3862 11.6559 9.3862Z" fill="white"/>
</g>
<defs>
<clipPath id="clip0_276_596">
<rect width="20" height="20" rx="3" fill="white"/>
</clipPath>
</defs>
</svg>
