<svg width="22" height="21" viewBox="0 0 22 21" fill="none" xmlns="http://www.w3.org/2000/svg">
<path d="M20.71 5.29C20.617 5.19627 20.5064 5.12188 20.3846 5.07111C20.2627 5.02034 20.132 4.9942 20 4.9942C19.868 4.9942 19.7373 5.02034 19.6154 5.07111C19.4936 5.12188 19.383 5.19627 19.29 5.29L18 6.59V1C18 0.734784 17.8946 0.48043 17.7071 0.292893C17.5196 0.105357 17.2652 0 17 0C16.7348 0 16.4804 0.105357 16.2929 0.292893C16.1054 0.48043 16 0.734784 16 1V6.59L14.71 5.29C14.5217 5.1017 14.2663 4.99591 14 4.99591C13.7337 4.99591 13.4783 5.1017 13.29 5.29C13.1017 5.4783 12.9959 5.7337 12.9959 6C12.9959 6.2663 13.1017 6.5217 13.29 6.71L16.29 9.71C16.3851 9.80104 16.4972 9.87241 16.62 9.92C16.7397 9.97291 16.8691 10.0002 17 10.0002C17.1309 10.0002 17.2603 9.97291 17.38 9.92C17.5028 9.87241 17.6149 9.80104 17.71 9.71L20.71 6.71C20.8037 6.61704 20.8781 6.50644 20.9289 6.38458C20.9797 6.26272 21.0058 6.13201 21.0058 6C21.0058 5.86799 20.9797 5.73728 20.9289 5.61542C20.8781 5.49356 20.8037 5.38296 20.71 5.29ZM17 12C16.7348 12 16.4804 12.1054 16.2929 12.2929C16.1054 12.4804 16 12.7348 16 13V13.38L14.52 11.9C13.9974 11.3815 13.2911 11.0906 12.555 11.0906C11.8189 11.0906 11.1126 11.3815 10.59 11.9L9.89 12.6L7.41 10.12C6.88012 9.6156 6.17657 9.33429 5.445 9.33429C4.71343 9.33429 4.00988 9.6156 3.48 10.12L2 11.6V6C2 5.73478 2.10536 5.48043 2.29289 5.29289C2.48043 5.10536 2.73478 5 3 5H11C11.2652 5 11.5196 4.89464 11.7071 4.70711C11.8946 4.51957 12 4.26522 12 4C12 3.73478 11.8946 3.48043 11.7071 3.29289C11.5196 3.10536 11.2652 3 11 3H3C2.20435 3 1.44129 3.31607 0.87868 3.87868C0.316071 4.44129 0 5.20435 0 6V18C0 18.7956 0.316071 19.5587 0.87868 20.1213C1.44129 20.6839 2.20435 21 3 21H15C15.7956 21 16.5587 20.6839 17.1213 20.1213C17.6839 19.5587 18 18.7956 18 18V13C18 12.7348 17.8946 12.4804 17.7071 12.2929C17.5196 12.1054 17.2652 12 17 12ZM3 19C2.73478 19 2.48043 18.8946 2.29289 18.7071C2.10536 18.5196 2 18.2652 2 18V14.43L4.9 11.53C5.04691 11.39 5.24206 11.3119 5.445 11.3119C5.64794 11.3119 5.84309 11.39 5.99 11.53L9.16 14.7L13.46 19H3ZM16 18C15.9986 18.1914 15.9354 18.3773 15.82 18.53L11.31 14L12.01 13.3C12.0817 13.2268 12.1673 13.1687 12.2617 13.129C12.3561 13.0893 12.4576 13.0689 12.56 13.0689C12.6624 13.0689 12.7639 13.0893 12.8583 13.129C12.9527 13.1687 13.0383 13.2268 13.11 13.3L16 16.21V18Z" fill="#A8A8BE"/>
</svg>
