<svg width="207" height="62" viewBox="0 0 207 62" fill="none" xmlns="http://www.w3.org/2000/svg">
<g id="logo">
<path id="Vector" d="M63.3641 5.34113V46.7727C63.3641 49.7225 61.1271 52.1138 58.3676 52.1138H15.5607C14.4613 52.1138 13.3945 52.492 12.5128 53.1844L1.91039 61.5394C1.1212 62.1619 0 61.5568 0 60.5095V5.34113C0 2.39129 2.23695 0 4.99641 0H58.3676C61.1271 0 63.3641 2.39129 63.3641 5.34113Z" fill="#95F5D3"/>
<path id="Vector_2" d="M73.1195 38.4553C73.7113 38.1481 74.1804 37.7402 74.527 37.2264C74.9215 36.6383 75.1187 35.9337 75.1187 35.1179C75.1187 34.3021 74.9215 33.5975 74.527 32.9936C74.1324 32.395 73.5727 31.9341 72.8476 31.6163C72.1226 31.2931 71.2642 31.1289 70.2726 31.1289H65.1492V41.7027H68.7372V39.0434H69.7127L71.5201 41.7027H75.348L73.1195 38.4553ZM68.7372 37.9733L68.5346 37.7667L68.7372 37.5812V37.9733ZM71.1469 36.0238C70.907 36.2462 70.5391 36.3575 70.0433 36.3575H68.7372V33.8783H70.0433C70.5391 33.8783 70.907 33.9895 71.1469 34.212C71.3815 34.4345 71.5041 34.7365 71.5041 35.1179C71.5041 35.4993 71.3815 35.8013 71.1469 36.0238Z" fill="white"/>
<path id="Vector_3" d="M85.3175 39.0169V41.7027H76.4728V31.1289H85.1202V33.8201H79.9968V35.0596H84.4964V37.6237H79.9968V39.0169H85.3175Z" fill="white"/>
<path id="Vector_4" d="M97.9154 31.1289L93.4157 41.7027H89.8915L85.3922 31.1289H89.2524L91.7847 37.3005L94.3912 31.1289H97.9154Z" fill="white"/>
<path id="Vector_5" d="M98.2672 41.7027V31.1289H101.855V41.7027H98.2672Z" fill="white"/>
<path id="Vector_6" d="M112.433 39.0169V41.7027H103.588V31.1289H112.235V33.8201H107.112V35.0596H111.612V37.6237H107.112V39.0169H112.433Z" fill="white"/>
<path id="Vector_7" d="M130.975 31.1289L127.568 41.7027H123.725L122.008 36.0502L120.201 41.7027H116.351L112.95 31.1289H116.639L118.495 37.1415L120.457 31.1289H123.757L125.612 37.2104L127.568 31.1289H130.975Z" fill="white"/>
<path id="Vector_8" d="M135.731 41.9461C134.841 41.9461 133.976 41.8455 133.145 41.6442C132.314 41.4428 131.631 41.1833 131.092 40.8601L132.25 38.2644C132.756 38.5557 133.321 38.7888 133.945 38.9689C134.568 39.1437 135.171 39.2338 135.763 39.2338C136.109 39.2338 136.376 39.2126 136.579 39.1649C136.781 39.1172 136.919 39.0537 137.01 38.9689C137.1 38.8841 137.149 38.7782 137.149 38.6617C137.149 38.471 137.042 38.3173 136.829 38.2113C136.616 38.1002 136.333 38.0101 135.987 37.9306C135.635 37.8565 135.256 37.777 134.841 37.6869C134.425 37.6022 134.008 37.4856 133.588 37.3479C133.167 37.2049 132.783 37.0195 132.431 36.7916C132.079 36.5586 131.801 36.2566 131.588 35.8752C131.375 35.4991 131.268 35.0275 131.268 34.4608C131.268 33.8038 131.455 33.2105 131.823 32.6702C132.191 32.1298 132.745 31.7007 133.481 31.3776C134.216 31.0545 135.128 30.8955 136.227 30.8955C136.946 30.8955 137.655 30.9697 138.354 31.1234C139.052 31.2716 139.681 31.5047 140.241 31.8173L139.164 34.4025C138.637 34.1429 138.129 33.9469 137.634 33.8145C137.144 33.6821 136.664 33.6184 136.2 33.6184C135.853 33.6184 135.582 33.6502 135.379 33.7085C135.176 33.7668 135.032 33.8515 134.947 33.9522C134.861 34.0529 134.819 34.1641 134.819 34.286C134.819 34.466 134.926 34.609 135.139 34.715C135.352 34.821 135.635 34.911 135.981 34.9799C136.328 35.0487 136.717 35.1282 137.138 35.2077C137.559 35.2872 137.975 35.3984 138.391 35.5415C138.807 35.6845 139.191 35.8699 139.537 36.0977C139.889 36.3308 140.167 36.6327 140.38 37.0035C140.593 37.3743 140.7 37.8405 140.7 38.3915C140.7 39.0377 140.513 39.6258 140.145 40.1661C139.777 40.7065 139.228 41.1356 138.498 41.464C137.767 41.7924 136.85 41.9567 135.746 41.9567L135.731 41.9461Z" fill="white"/>
<path id="Vector_9" d="M79.7836 24.2533V28.7032H65.1492V11.2109H79.4585V15.6608H70.9817V17.7109H78.4242V21.9595H70.9817V24.2533H79.7836Z" fill="#95F5D3"/>
<path id="Vector_10" d="M88.6339 29.1005C87.1564 29.1005 85.7333 28.9363 84.3578 28.6025C82.9824 28.2688 81.8521 27.8344 80.9618 27.3047L82.8704 23.0084C83.7074 23.4905 84.6404 23.8772 85.6747 24.1686C86.7036 24.4599 87.7059 24.6083 88.6813 24.6083C89.2523 24.6083 89.7 24.5712 90.0251 24.497C90.3503 24.4228 90.5901 24.3116 90.7393 24.1739C90.8885 24.0362 90.9635 23.8613 90.9635 23.66C90.9635 23.3422 90.7876 23.0932 90.4357 22.913C90.0838 22.7276 89.6197 22.574 89.0384 22.4521C88.458 22.325 87.8283 22.1926 87.1409 22.0548C86.4526 21.9118 85.76 21.7264 85.0669 21.4933C84.3685 21.2602 83.734 20.953 83.1583 20.5662C82.5825 20.1848 82.1133 19.6816 81.7615 19.0564C81.4096 18.4314 81.2337 17.6527 81.2337 16.7203C81.2337 15.6396 81.5375 14.6489 82.1507 13.759C82.7637 12.869 83.6754 12.1539 84.891 11.6241C86.1065 11.0891 87.6205 10.8242 89.4283 10.8242C90.6168 10.8242 91.7898 10.9513 92.9464 11.2003C94.1039 11.4493 95.1432 11.836 96.0652 12.3499L94.2798 16.6197C93.4053 16.1852 92.5626 15.8621 91.7527 15.6449C90.9368 15.4277 90.1476 15.3217 89.3748 15.3217C88.8038 15.3217 88.351 15.3694 88.0155 15.4701C87.6791 15.5707 87.4393 15.7032 87.3005 15.8674C87.1564 16.0316 87.0874 16.217 87.0874 16.4183C87.0874 16.7203 87.2634 16.9533 87.6153 17.1282C87.9672 17.303 88.4312 17.4513 89.0117 17.5679C89.5878 17.6844 90.2278 17.8115 90.9204 17.944C91.6138 18.0764 92.3073 18.2619 92.9947 18.4949C93.6821 18.728 94.3169 19.0353 94.8922 19.422C95.4684 19.8035 95.9376 20.3067 96.2895 20.9212C96.6414 21.5357 96.8173 22.3039 96.8173 23.2203C96.8173 24.2851 96.5137 25.2651 95.9005 26.1551C95.2872 27.0451 94.3807 27.7655 93.1707 28.3059C91.9657 28.8462 90.446 29.1165 88.6175 29.1165L88.6339 29.1005Z" fill="#95F5D3"/>
<path id="Vector_11" d="M114.107 14.2993C113.451 13.3087 112.524 12.5458 111.324 12.0108C110.129 11.4811 108.706 11.2109 107.064 11.2109H98.5924V28.7032H104.526V24.4069H107.064C108.706 24.4069 110.129 24.1367 111.324 23.5911C112.524 23.0508 113.451 22.2879 114.107 21.3079C114.757 20.3226 115.088 19.1571 115.088 17.8115C115.088 16.466 114.757 15.2899 114.107 14.2993ZM104.526 22.5316L104.196 22.1979L104.526 21.88V22.5316ZM108.509 19.3107C108.114 19.6763 107.506 19.8564 106.685 19.8564H104.526V15.7615H106.685C107.506 15.7615 108.114 15.9415 108.509 16.3124C108.904 16.6779 109.1 17.1759 109.1 17.8115C109.1 18.4473 108.904 18.9399 108.509 19.3107Z" fill="#95F5D3"/>
<path id="Vector_12" d="M126.524 29.1014C125.084 29.1014 123.752 28.8789 122.535 28.4287C121.32 27.9784 120.27 27.3426 119.38 26.5162C118.489 25.6898 117.801 24.7204 117.305 23.6079C116.81 22.4902 116.564 21.277 116.564 19.9579C116.564 18.6389 116.81 17.4045 117.305 16.2974C117.801 15.1902 118.489 14.2261 119.38 13.3997C120.27 12.5733 121.32 11.9375 122.535 11.4872C123.752 11.037 125.074 10.8145 126.497 10.8145C127.92 10.8145 129.264 11.037 130.469 11.4872C131.674 11.9375 132.724 12.5733 133.614 13.3997C134.504 14.2261 135.193 15.1902 135.688 16.2974C136.184 17.4045 136.429 18.623 136.429 19.9579C136.429 21.2929 136.184 22.4902 135.688 23.6079C135.193 24.7257 134.504 25.6951 133.614 26.5162C132.724 27.3426 131.679 27.9784 130.469 28.4287C129.264 28.8789 127.947 29.1014 126.524 29.1014ZM126.497 24.3284C127.051 24.3284 127.563 24.2277 128.042 24.0264C128.523 23.8252 128.939 23.539 129.301 23.163C129.664 22.7868 129.941 22.3312 130.144 21.7909C130.346 21.2505 130.447 20.636 130.447 19.9527C130.447 19.2693 130.346 18.66 130.144 18.1144C129.941 17.5741 129.664 17.1132 129.301 16.7423C128.939 16.3662 128.523 16.0801 128.042 15.8789C127.563 15.6776 127.051 15.5769 126.497 15.5769C125.942 15.5769 125.431 15.6776 124.95 15.8789C124.471 16.0801 124.055 16.3662 123.693 16.7423C123.33 17.1185 123.053 17.5741 122.85 18.1144C122.648 18.6548 122.547 19.2693 122.547 19.9527C122.547 20.636 122.648 21.2453 122.85 21.7909C123.053 22.3312 123.33 22.7921 123.693 23.163C124.055 23.539 124.471 23.8252 124.95 24.0264C125.431 24.2277 125.942 24.3284 126.497 24.3284Z" fill="#95F5D3"/>
<path id="Vector_13" d="M155.947 11.2109V28.7032H151.069L144.378 20.7464V28.7032H138.593V11.2109H143.472L150.163 19.1677V11.2109H155.947Z" fill="#95F5D3"/>
<path id="Vector_14" d="M165.373 29.1005C163.897 29.1005 162.473 28.9363 161.097 28.6025C159.722 28.2688 158.591 27.8344 157.701 27.3047L159.61 23.0084C160.447 23.4905 161.38 23.8772 162.414 24.1686C163.443 24.4599 164.445 24.6083 165.421 24.6083C165.992 24.6083 166.439 24.5712 166.764 24.497C167.089 24.4228 167.329 24.3116 167.478 24.1739C167.628 24.0308 167.703 23.8613 167.703 23.66C167.703 23.3422 167.527 23.0932 167.175 22.913C166.823 22.7276 166.359 22.574 165.778 22.4521C165.202 22.325 164.568 22.1926 163.88 22.0548C163.193 21.9118 162.499 21.7264 161.806 21.4933C161.108 21.2602 160.473 20.953 159.898 20.5662C159.322 20.1848 158.853 19.6816 158.501 19.0564C158.149 18.4314 157.973 17.6527 157.973 16.7203C157.973 15.6396 158.276 14.6489 158.89 13.759C159.503 12.869 160.415 12.1539 161.631 11.6241C162.846 11.0891 164.36 10.8242 166.167 10.8242C167.356 10.8242 168.529 10.9513 169.686 11.2003C170.843 11.4493 171.882 11.836 172.804 12.3499L171.019 16.6197C170.144 16.1852 169.308 15.8621 168.492 15.6449C167.676 15.4277 166.887 15.3217 166.114 15.3217C165.544 15.3217 165.09 15.3694 164.755 15.4701C164.418 15.5707 164.179 15.7032 164.04 15.8674C163.897 16.0316 163.827 16.217 163.827 16.4183C163.827 16.7203 164.003 16.9533 164.355 17.1282C164.706 17.303 165.17 17.4513 165.752 17.5679C166.327 17.6844 166.967 17.8115 167.66 17.944C168.353 18.0764 169.047 18.2619 169.734 18.4949C170.421 18.728 171.056 19.0353 171.632 19.422C172.208 19.8035 172.677 20.3067 173.029 20.9212C173.381 21.5357 173.557 22.3039 173.557 23.2203C173.557 24.2851 173.253 25.2651 172.64 26.1551C172.026 27.0451 171.12 27.7655 169.91 28.3059C168.705 28.8462 167.185 29.1165 165.357 29.1165L165.373 29.1005Z" fill="#95F5D3"/>
<path id="Vector_15" d="M189.966 24.2533V28.7032H175.332V11.2109H189.636V15.6608H181.165V17.7109H188.607V21.9595H181.165V24.2533H189.966Z" fill="#95F5D3"/>
<path id="Vector_16" d="M198.817 29.1005C197.34 29.1005 195.916 28.9363 194.54 28.6025C193.165 28.2688 192.035 27.8344 191.145 27.3047L193.053 23.0084C193.89 23.4905 194.828 23.8772 195.857 24.1686C196.886 24.4599 197.889 24.6083 198.864 24.6083C199.435 24.6083 199.883 24.5712 200.208 24.497C200.533 24.4228 200.773 24.3116 200.922 24.1739C201.071 24.0308 201.146 23.8613 201.146 23.66C201.146 23.3422 200.97 23.0932 200.618 22.913C200.266 22.7276 199.802 22.574 199.222 22.4521C198.646 22.325 198.011 22.1926 197.324 22.0548C196.636 21.9118 195.943 21.7264 195.25 21.4933C194.557 21.2602 193.917 20.953 193.341 20.5662C192.765 20.1848 192.296 19.6816 191.944 19.0564C191.592 18.4314 191.416 17.6527 191.416 16.7203C191.416 15.6396 191.721 14.6489 192.333 13.759C192.946 12.869 193.858 12.1539 195.074 11.6241C196.289 11.0891 197.803 10.8242 199.611 10.8242C200.799 10.8242 201.972 10.9513 203.129 11.2003C204.287 11.4493 205.326 11.836 206.248 12.3499L204.463 16.6197C203.588 16.1852 202.751 15.8621 201.935 15.6449C201.119 15.4277 200.33 15.3217 199.557 15.3217C198.987 15.3217 198.534 15.3694 198.198 15.4701C197.862 15.5707 197.622 15.7032 197.483 15.8674C197.34 16.0316 197.27 16.217 197.27 16.4183C197.27 16.7203 197.446 16.9533 197.798 17.1282C198.15 17.303 198.614 17.4513 199.195 17.5679C199.771 17.6844 200.41 17.8115 201.104 17.944C201.797 18.0764 202.49 18.2619 203.177 18.4949C203.865 18.728 204.5 19.0353 205.076 19.422C205.651 19.8035 206.12 20.3067 206.472 20.9212C206.824 21.5357 207 22.3039 207 23.2203C207 24.2851 206.696 25.2651 206.083 26.1551C205.47 27.0451 204.563 27.7655 203.353 28.3059C202.148 28.8462 200.629 29.1165 198.8 29.1165L198.817 29.1005Z" fill="#95F5D3"/>
<path id="Vector_17" d="M54.2656 32.6467C56.3288 31.603 57.9549 30.1939 59.1437 28.414C60.5139 26.3797 61.191 23.9535 61.191 21.1352C61.191 18.3169 60.5139 15.8695 59.1437 13.8035C57.7789 11.7322 55.849 10.1429 53.3433 9.03046C50.8375 7.91798 47.8734 7.35645 44.4399 7.35645H26.7399V43.8879H39.1352V34.7021H42.5046L48.7477 43.8879H61.9747L54.2603 32.6519L54.2656 32.6467ZM47.4628 24.2608C46.6418 25.0289 45.3729 25.4156 43.6563 25.4156H39.1405V16.8549H43.6563C45.3729 16.8549 46.6418 17.2416 47.4628 17.9991C48.2838 18.7672 48.6996 19.8109 48.6996 21.1352C48.6996 22.4596 48.2838 23.5032 47.4628 24.2608Z" fill="#4B4AEF"/>
<path id="Vector_18" d="M8.77977 8.82715H27.2336V11.7696H8.77977C8.39092 11.7696 8.07703 11.2922 8.07703 10.7008V9.89579C8.07703 9.30446 8.39092 8.82715 8.77977 8.82715Z" fill="#4B4AEF"/>
<path id="Vector_19" d="M8.77977 23.5391H27.2336V26.4815H8.77977C8.39092 26.4815 8.07703 26.0041 8.07703 25.4128V24.6077C8.07703 24.0164 8.39092 23.5391 8.77977 23.5391Z" fill="#4B4AEF"/>
<path id="Vector_20" d="M8.77977 38.251H27.2336V41.1934H8.77977C8.39092 41.1934 8.07703 40.7161 8.07703 40.1248V39.3196C8.07703 38.7283 8.39092 38.251 8.77977 38.251Z" fill="#4B4AEF"/>
<path id="Vector_21" d="M8.77977 30.8955H27.2336V33.8379H8.77977C8.39092 33.8379 8.07703 33.3606 8.07703 32.7693V31.9642C8.07703 31.3729 8.39092 30.8955 8.77977 30.8955Z" fill="#4B4AEF"/>
<path id="Vector_22" d="M8.77977 16.1836H27.2336V19.126H8.77977C8.39092 19.126 8.07703 18.6486 8.07703 18.0573V17.2522C8.07703 16.6609 8.39092 16.1836 8.77977 16.1836Z" fill="#4B4AEF"/>
</g>
</svg>
