<svg width="15" height="19" viewBox="0 0 15 19" fill="none" xmlns="http://www.w3.org/2000/svg">
<path id="ruble icon" d="M9.35 12.1597C12.675 12.1597 15 9.71946 15 6.21164C15 2.70381 12.675 0.339844 9.35 0.339844H2.96875C2.70988 0.339844 2.5 0.560358 2.5 0.832337V9.31275H0.46875C0.209883 9.31275 0 9.53326 0 9.80524V11.6672C0 11.9392 0.209883 12.1597 0.46875 12.1597H2.5V13.473H0.46875C0.209883 13.473 0 13.6935 0 13.9655V15.6071C0 15.8791 0.209883 16.0996 0.46875 16.0996H2.5V18.2338C2.5 18.5058 2.70988 18.7263 2.96875 18.7263H5.25625C5.51512 18.7263 5.725 18.5058 5.725 18.2338V16.0996H12.0312C12.2901 16.0996 12.5 15.8791 12.5 15.6071V13.9655C12.5 13.6935 12.2901 13.473 12.0312 13.473H5.725V12.1597H9.35ZM5.725 3.16134H8.8C10.625 3.16134 11.725 4.35605 11.725 6.21164C11.725 8.09264 10.625 9.31275 8.75 9.31275H5.725V3.16134Z" fill="white"/>
</svg>
