<svg width="20" height="20" viewBox="0 0 20 20" fill="none" xmlns="http://www.w3.org/2000/svg">
<circle cx="10" cy="10" r="10" fill="#3E70FB"/>
<path fill-rule="evenodd" clip-rule="evenodd" d="M4.57999 9.69899C7.27923 8.52293 9.07901 7.74753 9.97934 7.37277C12.5508 6.30379 13.0879 6.11814 13.4333 6.11123C13.5613 6.10874 13.687 6.14649 13.7925 6.21917C13.8665 6.283 13.9137 6.37244 13.9246 6.46957C13.9432 6.59038 13.9484 6.71288 13.9401 6.83483C13.8011 8.30274 13.1975 11.8508 12.891 13.4905C12.7615 14.1813 12.5059 14.417 12.2581 14.4404C11.721 14.4896 11.3082 14.0846 10.7901 13.7435C9.97502 13.209 9.51478 12.8801 8.72383 12.3551C7.80941 11.7506 8.40262 11.4216 8.9233 10.8811C9.05973 10.7395 11.4274 8.58424 11.474 8.38909C11.4802 8.36027 11.4795 8.33042 11.472 8.30192C11.4645 8.27343 11.4504 8.24709 11.4308 8.22503C11.4025 8.20732 11.3704 8.19645 11.3371 8.19331C11.3039 8.19016 11.2703 8.19481 11.2392 8.2069C11.158 8.22474 9.85643 9.08506 7.3345 10.7878C6.96493 11.0417 6.63018 11.1655 6.33027 11.1591C5.99955 11.1514 5.36403 10.9718 4.89084 10.8137C4.31145 10.6255 3.85467 10.5262 3.89094 10.2093C3.91223 10.0435 4.14192 9.87341 4.57999 9.69899Z" fill="white"/>
</svg>
