<svg width="40" height="40" viewBox="0 0 40 40" fill="none" xmlns="http://www.w3.org/2000/svg">
<g id="update button">
<rect id="shape" width="40" height="40" rx="10" fill="#E5E5F8"/>
<path id="update icon" d="M27.91 23.51H23.38C23.1148 23.51 22.8604 23.6154 22.6729 23.8029C22.4854 23.9904 22.38 24.2448 22.38 24.51C22.38 24.7752 22.4854 25.0296 22.6729 25.2171C22.8604 25.4046 23.1148 25.51 23.38 25.51H25.78C24.6769 26.6627 23.2544 27.4593 21.6952 27.7974C20.1359 28.1355 18.5112 27.9996 17.0298 27.4072C15.5483 26.8149 14.2779 25.7931 13.3816 24.4732C12.4853 23.1532 12.0042 21.5955 12 20C12 19.7348 11.8946 19.4804 11.7071 19.2929C11.5196 19.1054 11.2652 19 11 19C10.7348 19 10.4804 19.1054 10.2929 19.2929C10.1054 19.4804 10 19.7348 10 20C10.0053 21.9528 10.5822 23.8613 11.6596 25.49C12.737 27.1187 14.2677 28.3964 16.0627 29.1652C17.8578 29.9341 19.8387 30.1605 21.761 29.8166C23.6833 29.4727 25.4628 28.5735 26.88 27.23V29C26.88 29.2652 26.9854 29.5196 27.1729 29.7071C27.3604 29.8946 27.6148 30 27.88 30C28.1452 30 28.3996 29.8946 28.5871 29.7071C28.7746 29.5196 28.88 29.2652 28.88 29V24.5C28.8775 24.2416 28.7752 23.9943 28.5943 23.8097C28.4135 23.6251 28.1683 23.5177 27.91 23.51ZM20 10C17.4364 10.0073 14.9735 10.9989 13.12 12.77V11C13.12 10.7348 13.0146 10.4804 12.8271 10.2929C12.6396 10.1054 12.3852 10 12.12 10C11.8548 10 11.6004 10.1054 11.4129 10.2929C11.2254 10.4804 11.12 10.7348 11.12 11V15.5C11.12 15.7652 11.2254 16.0196 11.4129 16.2071C11.6004 16.3946 11.8548 16.5 12.12 16.5H16.62C16.8852 16.5 17.1396 16.3946 17.3271 16.2071C17.5146 16.0196 17.62 15.7652 17.62 15.5C17.62 15.2348 17.5146 14.9804 17.3271 14.7929C17.1396 14.6054 16.8852 14.5 16.62 14.5H14.22C15.3225 13.3479 16.7441 12.5515 18.3024 12.2131C19.8607 11.8747 21.4846 12.0097 22.9656 12.6009C24.4466 13.192 25.7172 14.2122 26.6142 15.5306C27.5113 16.849 27.9938 18.4054 28 20C28 20.2652 28.1054 20.5196 28.2929 20.7071C28.4804 20.8946 28.7348 21 29 21C29.2652 21 29.5196 20.8946 29.7071 20.7071C29.8946 20.5196 30 20.2652 30 20C30 18.6868 29.7413 17.3864 29.2388 16.1732C28.7362 14.9599 27.9997 13.8575 27.0711 12.9289C26.1425 12.0003 25.0401 11.2638 23.8268 10.7612C22.6136 10.2587 21.3132 10 20 10Z" fill="#A8A8BE"/>
</g>
</svg>
