<svg width="20" height="20" viewBox="0 0 20 20" fill="none" xmlns="http://www.w3.org/2000/svg">
<circle cx="10" cy="10" r="10" fill="#7B529B"/>
<path d="M13.7384 6.01395C13.481 5.77521 12.4371 5.0178 10.1124 5.0075C10.1124 5.0075 7.37113 4.84179 6.03513 6.06825C5.28615 6.81162 5.02962 7.90045 5.00528 9.25143C4.98094 10.6024 4.94161 13.1302 7.38049 13.8165V14.8632C7.38049 14.8632 7.36458 15.2864 7.64357 15.3734C7.98062 15.4774 8.1791 15.1553 8.50116 14.8117C8.67811 14.6245 8.92246 14.3436 9.10597 14.1273C10.7743 14.2678 12.056 13.9466 12.2021 13.8989C12.5391 13.7903 14.4443 13.5459 14.7542 11.0162C15.0707 8.40602 14.596 6.75731 13.7384 6.01395ZM14.0193 10.8262C13.7581 12.9374 12.2124 13.0731 11.9278 13.1621C11.0566 13.3745 10.1578 13.4509 9.26325 13.3886C9.26325 13.3886 8.20999 14.6619 7.88044 14.9933C7.86192 15.0152 7.83835 15.0323 7.81176 15.0431C7.78518 15.0538 7.75637 15.058 7.72783 15.0551C7.67166 15.0411 7.65574 14.9746 7.65668 14.8763C7.65668 14.7359 7.66511 13.1368 7.66511 13.1368C5.6054 12.5638 5.72337 10.4114 5.74677 9.2842C5.77018 8.15698 5.98176 7.23292 6.61091 6.6122C7.74094 5.58796 10.0693 5.74151 10.0693 5.74151C12.0354 5.74993 12.9782 6.34163 13.1964 6.54011C13.9219 7.16177 14.2917 8.64756 14.0212 10.8252L14.0193 10.8262Z" fill="white"/>
<path d="M11.0693 9.32261C11.0357 9.32265 11.0033 9.30974 10.9789 9.28656C10.9545 9.26338 10.9399 9.2317 10.9382 9.19809C10.9158 8.75151 10.7061 8.53243 10.2773 8.50996C10.2425 8.50822 10.2099 8.49274 10.1865 8.46693C10.1632 8.44112 10.151 8.40709 10.1528 8.37233C10.1545 8.33757 10.17 8.30492 10.1958 8.28157C10.2216 8.25822 10.2556 8.24608 10.2904 8.24781C10.8521 8.27777 11.1714 8.60171 11.2004 9.18404C11.2019 9.21875 11.1897 9.25267 11.1664 9.27843C11.1431 9.3042 11.1106 9.31973 11.0759 9.32167L11.0693 9.32261Z" fill="white"/>
<path d="M11.7434 9.54912C11.7086 9.54814 11.6755 9.53342 11.6515 9.50816C11.6275 9.4829 11.6144 9.44916 11.6151 9.41431C11.627 9.21215 11.5984 9.00966 11.531 8.81868C11.4637 8.6277 11.3589 8.45207 11.2229 8.30207C10.9495 8.00341 10.575 7.84144 10.0779 7.80493C10.0606 7.8037 10.0438 7.79909 10.0284 7.79137C10.013 7.78364 9.99922 7.77296 9.98791 7.75992C9.97661 7.74688 9.96799 7.73174 9.96254 7.71536C9.95709 7.69899 9.95492 7.68171 9.95614 7.66449C9.95737 7.64728 9.96198 7.63048 9.9697 7.61505C9.97743 7.59961 9.98811 7.58585 10.0012 7.57455C10.0142 7.56325 10.0293 7.55463 10.0457 7.54918C10.0621 7.54373 10.0794 7.54155 10.0966 7.54278C10.6583 7.58304 11.1002 7.77965 11.4167 8.12512C11.5751 8.29991 11.6974 8.50428 11.7766 8.72648C11.8558 8.94868 11.8904 9.18434 11.8782 9.41992C11.8779 9.43726 11.8741 9.45436 11.8671 9.47023C11.8601 9.48611 11.8501 9.50046 11.8376 9.51246C11.8251 9.52445 11.8103 9.53387 11.7941 9.54016C11.778 9.54645 11.7607 9.5495 11.7434 9.54912Z" fill="white"/>
<path d="M12.4344 9.81884C12.3998 9.81884 12.3666 9.80516 12.3421 9.78078C12.3175 9.7564 12.3036 9.7233 12.3034 9.6887C12.2968 8.89571 12.059 8.26469 11.5956 7.81624C11.3648 7.59176 11.0919 7.41527 10.7925 7.29699C10.4931 7.17871 10.1732 7.121 9.85137 7.12718C9.8184 7.12439 9.78768 7.10933 9.76529 7.08497C9.74289 7.06061 9.73047 7.02872 9.73047 6.99563C9.73047 6.96255 9.74289 6.93066 9.76529 6.9063C9.78768 6.88194 9.8184 6.86688 9.85137 6.86409C10.2068 6.85659 10.5602 6.91966 10.8911 7.04967C11.222 7.17968 11.5238 7.37405 11.7791 7.6215C12.2949 8.12426 12.5589 8.81801 12.5655 9.68121C12.5657 9.69846 12.5626 9.71558 12.5561 9.73159C12.5497 9.74759 12.5402 9.76216 12.5281 9.77444C12.5159 9.78673 12.5015 9.79648 12.4856 9.80314C12.4697 9.80979 12.4526 9.81322 12.4354 9.81322L12.4344 9.81884Z" fill="white"/>
<path d="M10.3099 10.9526C10.3617 10.9559 10.4136 10.948 10.4621 10.9294C10.5106 10.9108 10.5545 10.882 10.5908 10.8449L10.7855 10.6015C10.8524 10.5275 10.9432 10.4794 11.042 10.4657C11.1408 10.452 11.2413 10.4736 11.3257 10.5266C11.4917 10.6206 11.6526 10.7231 11.8079 10.8337C11.954 10.9423 12.2545 11.1923 12.2554 11.1923C12.3252 11.25 12.3717 11.331 12.3863 11.4203C12.4009 11.5096 12.3827 11.6012 12.335 11.6782C12.2273 11.8643 12.0908 12.0321 11.9306 12.1753C11.816 12.2798 11.6735 12.3488 11.5205 12.3738C11.5006 12.3761 11.4805 12.3761 11.4606 12.3738C11.4014 12.3742 11.3426 12.365 11.2864 12.3466V12.3401C11.0795 12.282 10.734 12.136 10.1629 11.8186C9.82824 11.6412 9.50938 11.4354 9.20987 11.2035C9.0606 11.0872 8.91836 10.9621 8.78388 10.829L8.7689 10.815L8.75486 10.8L8.74081 10.7859L8.72583 10.7719C8.59318 10.637 8.46816 10.4948 8.35134 10.3459C8.11463 10.0491 7.90354 9.73281 7.72032 9.40033C7.40294 8.82548 7.25221 8.48095 7.19884 8.27685H7.19229C7.17425 8.22059 7.1654 8.16179 7.16608 8.10271C7.16372 8.08281 7.16372 8.0627 7.16608 8.04279C7.19062 7.88573 7.26059 7.73927 7.36736 7.62149C7.51058 7.46116 7.67839 7.32464 7.8645 7.21704C7.94124 7.16949 8.03257 7.15127 8.12169 7.16572C8.2108 7.18017 8.29169 7.22632 8.34947 7.29568C8.34947 7.29568 8.60038 7.59715 8.70805 7.7432C8.81571 7.88925 8.929 8.05496 9.02262 8.22068C9.07529 8.30526 9.09663 8.40564 9.08295 8.50434C9.06927 8.60304 9.02141 8.69382 8.94772 8.76088L8.70336 8.95468C8.66647 8.9911 8.63784 9.03504 8.61943 9.0835C8.60101 9.13196 8.59324 9.18382 8.59663 9.23555C8.59663 9.23555 8.95896 10.6071 10.3099 10.9526Z" fill="white"/>
</svg>
