<svg width="20" height="20" viewBox="0 0 20 20" fill="none" xmlns="http://www.w3.org/2000/svg">
<circle cx="10" cy="10" r="10" fill="#27C524"/>
<path d="M5 15.0436L5.70684 12.4634C5.16 11.5139 4.94168 10.4105 5.08572 9.32427C5.22976 8.23805 5.72811 7.22967 6.50352 6.45548C7.27893 5.68129 8.28809 5.18452 9.37454 5.04219C10.461 4.89986 11.5641 5.11991 12.5127 5.66824C13.4614 6.21657 14.2027 7.06255 14.6217 8.07502C15.0406 9.08749 15.1139 10.2099 14.8301 11.2682C14.5463 12.3266 13.9213 13.2618 13.052 13.9288C12.1826 14.5958 11.1175 14.9574 10.0218 14.9575C9.19063 14.957 8.37281 14.7485 7.64291 14.3508L5 15.0436ZM7.76181 13.4521L7.91348 13.5457C8.55124 13.9234 9.27873 14.1229 10.0199 14.1233C10.9378 14.1235 11.8297 13.8187 12.5554 13.2567C13.2812 12.6947 13.7995 11.9075 14.0291 11.0188C14.2587 10.1301 14.1864 9.19029 13.8236 8.34715C13.4608 7.50402 12.8281 6.80535 12.0249 6.361C11.2218 5.91664 10.2938 5.75179 9.38672 5.89237C8.47967 6.03294 7.64507 6.47097 7.01411 7.13759C6.38314 7.8042 5.99161 8.6616 5.90105 9.575C5.8105 10.4884 6.02606 11.406 6.51385 12.1835L6.60747 12.3399L6.18898 13.8668L7.76181 13.4521Z" fill="white"/>
<path fill-rule="evenodd" clip-rule="evenodd" d="M12.53 11.1621C12.4991 11.1097 12.4158 11.0788 12.2912 11.017C12.1667 10.9552 11.5554 10.6537 11.4412 10.6116C11.3269 10.5695 11.2446 10.5498 11.1603 10.6743C11.076 10.7989 10.8392 11.0788 10.7671 11.1621C10.695 11.2454 10.621 11.2557 10.4975 11.193C10.1326 11.0465 9.79583 10.8377 9.50228 10.576C9.23028 10.3244 8.99712 10.0339 8.81042 9.7138C8.7374 9.58928 8.802 9.52656 8.86473 9.46009C8.92745 9.39362 8.98924 9.31404 9.05197 9.24195C9.10344 9.17915 9.1454 9.10913 9.17648 9.03411C9.19287 8.99972 9.2005 8.96181 9.19871 8.92375C9.19691 8.8857 9.18573 8.84868 9.16618 8.81598C9.13529 8.75419 8.88532 8.14191 8.78234 7.89288C8.67936 7.64385 8.57918 7.68317 8.50148 7.67849C8.42377 7.67381 8.34607 7.67849 8.26368 7.67849C8.1997 7.67954 8.13664 7.694 8.07859 7.72093C8.02054 7.74786 7.96878 7.78666 7.92665 7.83483C7.78703 7.96722 7.67628 8.12704 7.60137 8.30426C7.52645 8.48148 7.48898 8.67227 7.49131 8.86466C7.49131 9.47694 7.93695 10.0686 7.99967 10.1519C8.0624 10.2353 8.8769 11.4917 10.1249 12.03C10.3566 12.1299 10.5934 12.2175 10.8345 12.2921C11.0883 12.3692 11.3566 12.3862 11.6181 12.3417C11.8568 12.3062 12.354 12.0403 12.4607 11.75C12.5674 11.4598 12.5609 11.2136 12.53 11.1621Z" fill="white"/>
</svg>
