<svg width="360" height="360" viewBox="0 0 360 360" fill="none" xmlns="http://www.w3.org/2000/svg">
<rect width="360" height="360" fill="#95F5D3"/>
<path d="M267.194 211.227C276.508 206.513 283.849 200.149 289.216 192.109C295.401 182.922 298.458 171.963 298.458 159.234C298.458 146.505 295.401 135.451 289.216 126.119C283.054 116.764 274.342 109.586 263.03 104.561C251.718 99.5363 238.336 97 222.836 97H142.931V262H198.889V220.511H214.1L242.283 262H301.996L267.17 211.251L267.194 211.227ZM236.483 173.351C232.776 176.82 227.048 178.567 219.298 178.567H198.913V139.901H219.298C227.048 139.901 232.776 141.648 236.483 145.069C240.189 148.539 242.067 153.252 242.067 159.234C242.067 165.216 240.189 169.929 236.483 173.351Z" fill="#4B4AEF"/>
<path d="M62.1674 103.614H145.344V116.897H62.1674C60.4148 116.897 59 114.742 59 112.073V108.438C59 105.769 60.4148 103.614 62.1674 103.614Z" fill="#4B4AEF"/>
<path d="M62.1674 170.032H145.344V183.316H62.1674C60.4148 183.316 59 181.161 59 178.491V174.856C59 172.187 60.4148 170.032 62.1674 170.032Z" fill="#4B4AEF"/>
<path d="M62.1674 236.45H145.344V249.734H62.1674C60.4148 249.734 59 247.579 59 244.91V241.275C59 238.605 60.4148 236.45 62.1674 236.45Z" fill="#4B4AEF"/>
<path d="M62.1674 203.241H145.344V216.525H62.1674C60.4148 216.525 59 214.37 59 211.7V208.066C59 205.396 60.4148 203.241 62.1674 203.241Z" fill="#4B4AEF"/>
<path d="M62.1674 136.823H145.344V150.107H62.1674C60.4148 150.107 59 147.952 59 145.282V141.648C59 138.978 60.4148 136.823 62.1674 136.823Z" fill="#4B4AEF"/>
</svg>
